<svg width="225" height="224" viewBox="0 0 225 224" fill="none" xmlns="http://www.w3.org/2000/svg">
<rect x="29" y="218" width="181" height="6" rx="3" fill="#E5F3F8"/>
<rect x="116" y="94" width="76" height="18" rx="7.05882" fill="#E5F3F8" stroke="#2A9DDD"/>
<path d="M154.38 99.6V98.77H156.26V106H155.34V99.6H154.38ZM157.713 105.27C158.56 104.59 159.223 104.033 159.703 103.6C160.183 103.16 160.586 102.703 160.913 102.23C161.246 101.75 161.413 101.28 161.413 100.82C161.413 100.387 161.306 100.047 161.093 99.8C160.886 99.5467 160.55 99.42 160.083 99.42C159.63 99.42 159.276 99.5633 159.023 99.85C158.776 100.13 158.643 100.507 158.623 100.98H157.743C157.77 100.233 157.996 99.6567 158.423 99.25C158.85 98.8433 159.4 98.64 160.073 98.64C160.76 98.64 161.303 98.83 161.703 99.21C162.11 99.59 162.313 100.113 162.313 100.78C162.313 101.333 162.146 101.873 161.813 102.4C161.486 102.92 161.113 103.38 160.693 103.78C160.273 104.173 159.736 104.633 159.083 105.16H162.523V105.92H157.713V105.27ZM167.301 101.53C167.481 101.217 167.748 100.957 168.101 100.75C168.461 100.537 168.878 100.43 169.351 100.43C169.838 100.43 170.278 100.547 170.671 100.78C171.071 101.013 171.384 101.343 171.611 101.77C171.838 102.19 171.951 102.68 171.951 103.24C171.951 103.793 171.838 104.287 171.611 104.72C171.384 105.153 171.071 105.49 170.671 105.73C170.278 105.97 169.838 106.09 169.351 106.09C168.884 106.09 168.471 105.987 168.111 105.78C167.758 105.567 167.488 105.303 167.301 104.99V108.6H166.391V100.52H167.301V101.53ZM171.021 103.24C171.021 102.827 170.938 102.467 170.771 102.16C170.604 101.853 170.378 101.62 170.091 101.46C169.811 101.3 169.501 101.22 169.161 101.22C168.828 101.22 168.518 101.303 168.231 101.47C167.951 101.63 167.724 101.867 167.551 102.18C167.384 102.487 167.301 102.843 167.301 103.25C167.301 103.663 167.384 104.027 167.551 104.34C167.724 104.647 167.951 104.883 168.231 105.05C168.518 105.21 168.828 105.29 169.161 105.29C169.501 105.29 169.811 105.21 170.091 105.05C170.378 104.883 170.604 104.647 170.771 104.34C170.938 104.027 171.021 103.66 171.021 103.24ZM172.809 103.25C172.809 102.683 172.922 102.19 173.149 101.77C173.375 101.343 173.689 101.013 174.089 100.78C174.495 100.547 174.959 100.43 175.479 100.43C176.152 100.43 176.705 100.593 177.139 100.92C177.579 101.247 177.869 101.7 178.009 102.28H177.029C176.935 101.947 176.752 101.683 176.479 101.49C176.212 101.297 175.879 101.2 175.479 101.2C174.959 101.2 174.539 101.38 174.219 101.74C173.899 102.093 173.739 102.597 173.739 103.25C173.739 103.91 173.899 104.42 174.219 104.78C174.539 105.14 174.959 105.32 175.479 105.32C175.879 105.32 176.212 105.227 176.479 105.04C176.745 104.853 176.929 104.587 177.029 104.24H178.009C177.862 104.8 177.569 105.25 177.129 105.59C176.689 105.923 176.139 106.09 175.479 106.09C174.959 106.09 174.495 105.973 174.089 105.74C173.689 105.507 173.375 105.177 173.149 104.75C172.922 104.323 172.809 103.823 172.809 103.25ZM181.163 106.09C180.743 106.09 180.366 106.02 180.033 105.88C179.7 105.733 179.436 105.533 179.243 105.28C179.05 105.02 178.943 104.723 178.923 104.39H179.863C179.89 104.663 180.016 104.887 180.243 105.06C180.476 105.233 180.78 105.32 181.153 105.32C181.5 105.32 181.773 105.243 181.973 105.09C182.173 104.937 182.273 104.743 182.273 104.51C182.273 104.27 182.166 104.093 181.953 103.98C181.74 103.86 181.41 103.743 180.963 103.63C180.556 103.523 180.223 103.417 179.963 103.31C179.71 103.197 179.49 103.033 179.303 102.82C179.123 102.6 179.033 102.313 179.033 101.96C179.033 101.68 179.116 101.423 179.283 101.19C179.45 100.957 179.686 100.773 179.993 100.64C180.3 100.5 180.65 100.43 181.043 100.43C181.65 100.43 182.14 100.583 182.513 100.89C182.886 101.197 183.086 101.617 183.113 102.15H182.203C182.183 101.863 182.066 101.633 181.853 101.46C181.646 101.287 181.366 101.2 181.013 101.2C180.686 101.2 180.426 101.27 180.233 101.41C180.04 101.55 179.943 101.733 179.943 101.96C179.943 102.14 180 102.29 180.113 102.41C180.233 102.523 180.38 102.617 180.553 102.69C180.733 102.757 180.98 102.833 181.293 102.92C181.686 103.027 182.006 103.133 182.253 103.24C182.5 103.34 182.71 103.493 182.883 103.7C183.063 103.907 183.156 104.177 183.163 104.51C183.163 104.81 183.08 105.08 182.913 105.32C182.746 105.56 182.51 105.75 182.203 105.89C181.903 106.023 181.556 106.09 181.163 106.09Z" fill="#2A9DDD"/>
<path fill-rule="evenodd" clip-rule="evenodd" d="M101.557 47C104.128 47 106.257 48.874 107.391 51.1815C108.137 52.6995 109.112 54.1013 110.294 55.3289C113.259 58.409 117.281 60.1394 121.474 60.1394C125.667 60.1394 129.689 58.409 132.654 55.3289C133.835 54.1017 134.811 52.7003 135.556 51.1828C136.691 48.8746 138.82 47 141.392 47C142.36 47 143.269 47.2556 144.053 47.7031C145.634 48.604 147.425 49.5325 149.1 50.2409C149.199 50.2824 149.297 50.327 149.394 50.3745L167.574 59.2642C170.454 60.6727 171.716 64.1819 170.393 67.1023L164.411 80.3026C163.088 83.2231 159.68 84.4488 156.799 83.0403L153.04 81.202C150.147 79.7876 146.773 81.8936 146.773 85.1136V120.03C146.773 123.237 144.174 125.836 140.968 125.836H101.983C98.7769 125.836 96.1777 123.237 96.1777 120.03V85.2355C96.1777 81.9814 92.7382 79.8772 89.841 81.3589L86.4243 83.1062C83.5697 84.5661 80.1423 83.4008 78.7691 80.5034L72.5681 67.4194C71.1949 64.522 72.3959 60.9898 75.2505 59.5299L93.2833 50.3078C93.4541 50.2205 93.6269 50.1426 93.8012 50.0739C95.531 49.3917 97.4013 48.4909 99.045 47.6213C99.7948 47.2246 100.65 47 101.557 47Z" fill="white"/>
<path d="M107.391 51.1815L107.84 50.9611V50.9611L107.391 51.1815ZM110.294 55.3289L109.934 55.6756V55.6756L110.294 55.3289ZM132.654 55.3289L133.014 55.6756L132.654 55.3289ZM135.556 51.1828L136.005 51.4033V51.4033L135.556 51.1828ZM149.394 50.3745L149.613 49.9254V49.9254L149.394 50.3745ZM167.574 59.2642L167.794 58.8151L167.574 59.2642ZM170.393 67.1023L170.848 67.3087L170.393 67.1023ZM164.411 80.3026L163.956 80.0963L164.411 80.3026ZM156.799 83.0403L156.58 83.4895L156.799 83.0403ZM86.4243 83.1062L86.652 83.5514L86.4243 83.1062ZM78.7691 80.5034L79.221 80.2893L78.7691 80.5034ZM72.5681 67.4194L73.0199 67.2052H73.0199L72.5681 67.4194ZM75.2505 59.5299L75.0228 59.0847L75.2505 59.5299ZM93.2833 50.3078L93.511 50.753L93.2833 50.3078ZM153.04 81.202L153.26 80.7528L153.04 81.202ZM144.053 47.7031L143.806 48.1374L144.053 47.7031ZM149.1 50.2409L149.295 49.7803L149.1 50.2409ZM107.84 50.9611C106.657 48.5528 104.386 46.5 101.557 46.5V47.5C103.87 47.5 105.858 49.1951 106.942 51.402L107.84 50.9611ZM110.654 54.9821C109.509 53.7926 108.563 52.4335 107.84 50.9611L106.942 51.402C107.71 52.9655 108.715 54.4101 109.934 55.6756L110.654 54.9821ZM121.474 59.6394C117.419 59.6394 113.527 57.9665 110.654 54.9821L109.934 55.6756C112.991 58.8515 117.142 60.6394 121.474 60.6394V59.6394ZM132.294 54.9821C129.421 57.9665 125.528 59.6394 121.474 59.6394V60.6394C125.806 60.6394 129.957 58.8515 133.014 55.6756L132.294 54.9821ZM135.107 50.9623C134.384 52.4343 133.439 53.7929 132.294 54.9821L133.014 55.6756C134.232 54.4104 135.237 52.9663 136.005 51.4033L135.107 50.9623ZM141.392 46.5C138.562 46.5 136.291 48.5535 135.107 50.9623L136.005 51.4033C137.09 49.1958 139.079 47.5 141.392 47.5V46.5ZM144.301 47.2687C143.443 46.7794 142.449 46.5 141.392 46.5V47.5C142.271 47.5 143.094 47.7319 143.806 48.1374L144.301 47.2687ZM148.906 50.7014C148.996 50.7394 149.085 50.7802 149.174 50.8237L149.613 49.9254C149.508 49.8738 149.402 49.8255 149.295 49.7803L148.906 50.7014ZM149.174 50.8237L167.354 59.7134L167.794 58.8151L149.613 49.9254L149.174 50.8237ZM167.354 59.7134C169.992 61.0031 171.149 64.2219 169.938 66.896L170.848 67.3087C172.283 64.142 170.917 60.3423 167.794 58.8151L167.354 59.7134ZM169.938 66.896L163.956 80.0963L164.867 80.509L170.848 67.3087L169.938 66.896ZM163.956 80.0963C162.749 82.7599 159.646 83.8758 157.019 82.5911L156.58 83.4895C159.713 85.0218 163.427 83.6862 164.867 80.509L163.956 80.0963ZM157.019 82.5911L153.26 80.7528L152.82 81.6512L156.58 83.4895L157.019 82.5911ZM147.273 120.03V85.1136H146.273V120.03H147.273ZM140.968 126.336C144.45 126.336 147.273 123.513 147.273 120.03H146.273C146.273 122.96 143.898 125.336 140.968 125.336V126.336ZM101.983 126.336H140.968V125.336H101.983V126.336ZM95.6777 120.03C95.6777 123.513 98.5007 126.336 101.983 126.336V125.336C99.053 125.336 96.6777 122.96 96.6777 120.03H95.6777ZM95.6777 85.2355V120.03H96.6777V85.2355H95.6777ZM86.652 83.5514L90.0687 81.804L89.6134 80.9137L86.1966 82.661L86.652 83.5514ZM78.3173 80.7176C79.8113 83.8698 83.5462 85.1397 86.652 83.5514L86.1966 82.661C83.5931 83.9925 80.4733 82.9318 79.221 80.2893L78.3173 80.7176ZM72.1162 67.6335L78.3173 80.7176L79.221 80.2893L73.0199 67.2052L72.1162 67.6335ZM75.0228 59.0847C71.9276 60.6677 70.6273 64.4919 72.1162 67.6335L73.0199 67.2052C71.7625 64.5521 72.8641 61.3119 75.4782 59.9751L75.0228 59.0847ZM93.0557 49.8627L75.0228 59.0847L75.4782 59.9751L93.511 50.753L93.0557 49.8627ZM93.6177 49.6087C93.4284 49.6834 93.2408 49.768 93.0557 49.8627L93.511 50.753C93.6674 50.673 93.8254 50.6018 93.9846 50.539L93.6177 49.6087ZM101.557 46.5C100.566 46.5 99.6313 46.7455 98.8112 47.1794L99.2788 48.0633C99.9583 47.7038 100.733 47.5 101.557 47.5V46.5ZM93.9846 50.539C95.737 49.8479 97.6248 48.9384 99.2788 48.0633L98.8112 47.1794C97.1779 48.0435 95.3251 48.9354 93.6177 49.6087L93.9846 50.539ZM96.6777 85.2355C96.6777 81.6077 92.8433 79.2619 89.6134 80.9137L90.0687 81.804C92.6332 80.4925 95.6777 82.3551 95.6777 85.2355H96.6777ZM153.26 80.7528C150.035 79.176 146.273 81.5239 146.273 85.1136H147.273C147.273 82.2634 150.26 80.3992 152.82 81.6512L153.26 80.7528ZM143.806 48.1374C145.397 49.0445 147.206 49.9829 148.906 50.7014L149.295 49.7803C147.643 49.082 145.871 48.1635 144.301 47.2687L143.806 48.1374Z" fill="#2A9DDD"/>
<rect x="104.457" y="79.4618" width="10.8206" height="12.3664" rx="2.3222" fill="#E5F3F8" stroke="#2A9DDD"/>
<rect x="73.9998" y="112" width="38" height="9" rx="4.5" fill="white" stroke="#2A9DDD"/>
<rect x="73.9998" y="103" width="38" height="9" rx="4.5" fill="white" stroke="#2A9DDD"/>
<path d="M107.5 94H78.4998C76.0145 94 73.9998 96.0147 73.9998 98.5C73.9998 100.985 76.0145 103 78.4998 103H107.5C109.985 103 112 100.985 112 98.5C112 96.0147 109.985 94 107.5 94Z" fill="white" stroke="#2A9DDD"/>
<path d="M54.9998 31L54.9998 123" stroke="#2A9DDD" stroke-linecap="round" stroke-linejoin="round" stroke-dasharray="2 5"/>
<circle cx="55.0321" cy="17.0323" r="16.5323" fill="white" stroke="#2A9DDD"/>
<mask id="path-12-inside-1_1_132" fill="white">
<path fill-rule="evenodd" clip-rule="evenodd" d="M76.4616 2.84218C75.5109 1.88972 73.9713 1.8915 73.0227 2.84615L55.285 20.6986L47.1236 12.4955C46.1745 11.5415 44.6338 11.5397 43.6824 12.4915C42.731 13.4433 42.7293 14.9883 43.6784 15.9423L53.3586 25.6719C53.4417 25.7554 53.5293 25.8316 53.6206 25.9005C54.5737 26.8184 56.0875 26.8052 57.0245 25.8622L76.4656 6.29531C77.4141 5.34065 77.4124 3.79464 76.4616 2.84218Z"/>
</mask>
<path fill-rule="evenodd" clip-rule="evenodd" d="M76.4616 2.84218C75.5109 1.88972 73.9713 1.8915 73.0227 2.84615L55.285 20.6986L47.1236 12.4955C46.1745 11.5415 44.6338 11.5397 43.6824 12.4915C42.731 13.4433 42.7293 14.9883 43.6784 15.9423L53.3586 25.6719C53.4417 25.7554 53.5293 25.8316 53.6206 25.9005C54.5737 26.8184 56.0875 26.8052 57.0245 25.8622L76.4656 6.29531C77.4141 5.34065 77.4124 3.79464 76.4616 2.84218Z" fill="#E5F3F8"/>
<path d="M73.0227 2.84615L73.7321 3.55098V3.55098L73.0227 2.84615ZM76.4616 2.84218L75.7539 3.54864L76.4616 2.84218ZM55.285 20.6986L54.5761 21.4039L55.2855 22.1169L55.9944 21.4034L55.285 20.6986ZM47.1236 12.4955L47.8325 11.7902L47.1236 12.4955ZM43.6824 12.4915L42.9751 11.7845H42.9751L43.6824 12.4915ZM43.6784 15.9423L42.9695 16.6476H42.9695L43.6784 15.9423ZM53.3586 25.6719L52.6497 26.3773L52.6497 26.3773L53.3586 25.6719ZM53.6206 25.9005L54.3142 25.1802L54.2709 25.1385L54.2229 25.1022L53.6206 25.9005ZM57.0245 25.8622L57.7338 26.567L57.0245 25.8622ZM76.4656 6.29531L75.7562 5.59048L76.4656 6.29531ZM73.7321 3.55098C74.2902 2.98925 75.1945 2.98821 75.7539 3.54864L77.1694 2.13571C75.8273 0.791235 73.6523 0.793751 72.3134 2.14133L73.7321 3.55098ZM55.9944 21.4034L73.7321 3.55098L72.3134 2.14133L54.5756 19.9937L55.9944 21.4034ZM55.9939 19.9933L47.8325 11.7902L46.4147 13.2008L54.5761 21.4039L55.9939 19.9933ZM47.8325 11.7902C46.4931 10.4439 44.3177 10.4413 42.9751 11.7845L44.3897 13.1984C44.9498 12.638 45.8558 12.639 46.4147 13.2008L47.8325 11.7902ZM42.9751 11.7845C41.6341 13.1262 41.6316 15.3028 42.9695 16.6476L44.3873 15.237C43.8269 14.6737 43.828 13.7604 44.3897 13.1984L42.9751 11.7845ZM42.9695 16.6476L52.6497 26.3773L54.0675 24.9666L44.3873 15.237L42.9695 16.6476ZM52.6497 26.3773C52.7662 26.4943 52.8894 26.6016 53.0183 26.6988L54.2229 25.1022C54.1691 25.0617 54.1172 25.0166 54.0675 24.9666L52.6497 26.3773ZM56.3151 25.1573C55.7638 25.7122 54.8747 25.7199 54.3142 25.1802L52.927 26.6209C54.2728 27.9169 56.4112 27.8982 57.7338 26.567L56.3151 25.1573ZM75.7562 5.59048L56.3151 25.1573L57.7338 26.567L77.175 7.00013L75.7562 5.59048ZM75.7539 3.54864C76.3156 4.11136 76.3166 5.02646 75.7562 5.59048L77.175 7.00013C78.5117 5.65484 78.5091 3.47791 77.1694 2.13571L75.7539 3.54864Z" fill="#2A9DDD" mask="url(#path-12-inside-1_1_132)"/>
<circle cx="55.0321" cy="86.0323" r="16.5323" fill="white" stroke="#2A9DDD"/>
<circle cx="48.1289" cy="88.129" r="2.12903" fill="#2A9DDD"/>
<circle cx="55.2256" cy="88.129" r="2.12903" fill="#2A9DDD"/>
<circle cx="62.3222" cy="88.129" r="2.12903" fill="#E5F3F8"/>
<path d="M40.9998 137H183V194.314C183 202.977 175.977 210 167.314 210H56.6861C48.0228 210 40.9998 202.977 40.9998 194.314V137Z" fill="white" stroke="#2A9DDD"/>
<rect x="31.9998" y="121" width="159.759" height="18.7952" rx="4.70588" fill="#E5F3F8" stroke="#2A9DDD"/>
<rect x="68.5241" y="152.825" width="11.549" height="17.8235" rx="5.77451" fill="#E5F3F8" stroke="#2A9DDD"/>
<rect x="93.5781" y="152.825" width="11.549" height="17.8235" rx="5.77451" fill="#E5F3F8" stroke="#2A9DDD"/>
<rect x="118.632" y="152.825" width="11.549" height="17.8235" rx="5.77451" fill="#E5F3F8" stroke="#2A9DDD"/>
<rect x="143.686" y="152.825" width="11.549" height="17.8235" rx="5.77451" fill="#E5F3F8" stroke="#2A9DDD"/>
<rect x="81.054" y="177.886" width="11.549" height="17.8235" rx="5.77451" fill="#E5F3F8" stroke="#2A9DDD"/>
<rect x="106.152" y="177.886" width="11.549" height="17.8235" rx="5.77451" fill="#E5F3F8" stroke="#2A9DDD"/>
<rect x="131.25" y="177.886" width="11.549" height="17.8235" rx="5.77451" fill="#E5F3F8" stroke="#2A9DDD"/>
<rect x="0.115564" y="-0.697599" width="12" height="67" rx="6" transform="matrix(0.813163 -0.582035 -0.582035 -0.813163 213.046 185.118)" fill="#E5F3F8" stroke="#2A9DDD"/>
<rect x="16.4556" y="105.618" width="12" height="67" rx="6" transform="rotate(-144.406 10.4556 185.618)" fill="#E5F3F8" stroke="#2A9DDD"/>
</svg>
