<svg width="356" height="356" viewBox="0 0 356 356" fill="none" xmlns="http://www.w3.org/2000/svg">
<g filter="url(#filter0_d_1_331)">
<rect x="50" y="34" width="240" height="240" rx="40" fill="white"/>
</g>
<path fill-rule="evenodd" clip-rule="evenodd" d="M115.471 82C117.464 82 119.114 83.4521 119.992 85.2402C120.57 86.4164 121.326 87.5025 122.241 88.4536C124.539 90.8402 127.655 92.1809 130.904 92.1809C134.153 92.1809 137.269 90.8402 139.567 88.4536C140.482 87.5026 141.238 86.4167 141.816 85.2408C142.694 83.4524 144.344 82 146.337 82C147.087 82 147.791 82.1981 148.399 82.5448C149.623 83.2428 151.011 83.9623 152.309 84.5112C152.385 84.5434 152.461 84.5779 152.536 84.6147L166.623 91.5027C168.854 92.594 169.832 95.313 168.807 97.5759L164.172 107.804C163.147 110.067 160.506 111.016 158.274 109.925L155.362 108.501C153.12 107.405 150.506 109.037 150.506 111.532V138.586C150.506 141.07 148.492 143.084 146.008 143.084H115.801C113.317 143.084 111.303 141.07 111.303 138.586V111.625C111.303 109.104 108.638 107.474 106.393 108.622L103.745 109.976C101.533 111.107 98.8774 110.204 97.8134 107.959L93.0086 97.8214C91.9447 95.5765 92.8752 92.8396 95.0871 91.7084L109.059 84.5629C109.192 84.4952 109.326 84.4347 109.461 84.3814C110.802 83.8529 112.251 83.155 113.525 82.4812C114.106 82.174 114.769 82 115.471 82Z" fill="white"/>
<path d="M119.992 85.2402L120.441 85.0198V85.0198L119.992 85.2402ZM122.241 88.4536L122.601 88.1068L122.241 88.4536ZM139.567 88.4536L139.206 88.1068V88.1068L139.567 88.4536ZM141.816 85.2408L141.367 85.0203V85.0203L141.816 85.2408ZM152.536 84.6147L152.756 84.1655L152.536 84.6147ZM166.623 91.5027L166.842 91.0535L166.623 91.5027ZM168.807 97.5759L168.352 97.3695V97.3695L168.807 97.5759ZM164.172 107.804L163.717 107.597L164.172 107.804ZM158.274 109.925L158.494 109.476L158.274 109.925ZM103.745 109.976L103.517 109.531L103.745 109.976ZM97.8134 107.959L98.2652 107.745L97.8134 107.959ZM93.0086 97.8214L92.5568 98.0356H92.5568L93.0086 97.8214ZM95.0871 91.7084L94.8594 91.2633L95.0871 91.7084ZM109.059 84.5629L109.287 85.0081L109.059 84.5629ZM109.461 84.3814L109.645 84.8466L109.461 84.3814ZM113.525 82.4812L113.292 82.0392L113.525 82.4812ZM106.393 108.622L106.166 108.176L106.393 108.622ZM148.399 82.5448L148.151 82.9791L148.399 82.5448ZM120.441 85.0198C119.513 83.131 117.722 81.5 115.471 81.5V82.5C117.206 82.5 118.714 83.7733 119.543 85.4607L120.441 85.0198ZM122.601 88.1068C121.722 87.1937 120.996 86.1504 120.441 85.0198L119.543 85.4607C120.143 86.6823 120.929 87.8113 121.881 88.8004L122.601 88.1068ZM130.904 91.6809C127.794 91.6809 124.807 90.3977 122.601 88.1068L121.881 88.8004C124.271 91.2827 127.516 92.6809 130.904 92.6809V91.6809ZM139.206 88.1068C137.001 90.3977 134.014 91.6809 130.904 91.6809V92.6809C134.292 92.6809 137.537 91.2827 139.927 88.8004L139.206 88.1068ZM141.367 85.0203C140.811 86.1507 140.085 87.1939 139.206 88.1068L139.927 88.8004C140.879 87.8114 141.664 86.6827 142.264 85.4613L141.367 85.0203ZM146.337 81.5C144.086 81.5 142.295 83.1312 141.367 85.0203L142.264 85.4613C143.094 83.7736 144.603 82.5 146.337 82.5V81.5ZM148.647 82.1104C147.965 81.7218 147.176 81.5 146.337 81.5V82.5C146.998 82.5 147.617 82.6743 148.151 82.9791L148.647 82.1104ZM152.114 84.9717C152.182 85.0004 152.249 85.0311 152.317 85.0639L152.756 84.1655C152.672 84.1247 152.588 84.0864 152.504 84.0507L152.114 84.9717ZM152.317 85.0639L166.403 91.9518L166.842 91.0535L152.756 84.1655L152.317 85.0639ZM166.403 91.9518C168.392 92.9244 169.265 95.353 168.352 97.3695L169.262 97.7822C170.399 95.2731 169.317 92.2636 166.842 91.0535L166.403 91.9518ZM168.352 97.3695L163.717 107.597L164.627 108.01L169.262 97.7822L168.352 97.3695ZM163.717 107.597C162.808 109.604 160.473 110.443 158.494 109.476L158.055 110.374C160.54 111.589 163.486 110.53 164.627 108.01L163.717 107.597ZM158.494 109.476L155.581 108.052L155.142 108.95L158.055 110.374L158.494 109.476ZM151.006 138.586V111.532H150.006V138.586H151.006ZM146.008 143.584C148.768 143.584 151.006 141.346 151.006 138.586H150.006C150.006 140.794 148.216 142.584 146.008 142.584V143.584ZM115.801 143.584H146.008V142.584H115.801V143.584ZM110.803 138.586C110.803 141.346 113.041 143.584 115.801 143.584V142.584C113.593 142.584 111.803 140.794 111.803 138.586H110.803ZM110.803 111.625V138.586H111.803V111.625H110.803ZM103.973 110.421L106.621 109.067L106.166 108.176L103.517 109.531L103.973 110.421ZM97.3616 108.173C98.5464 110.673 101.51 111.681 103.973 110.421L103.517 109.531C101.556 110.534 99.2084 109.735 98.2652 107.745L97.3616 108.173ZM92.5568 98.0356L97.3616 108.173L98.2652 107.745L93.4605 97.6073L92.5568 98.0356ZM94.8594 91.2633C92.4069 92.5175 91.3771 95.5464 92.5568 98.0356L93.4605 97.6073C92.5122 95.6066 93.3435 93.1617 95.3147 92.1536L94.8594 91.2633ZM108.832 84.1177L94.8594 91.2633L95.3147 92.1536L109.287 85.0081L108.832 84.1177ZM109.278 83.9163C109.127 83.9755 108.979 84.0426 108.832 84.1177L109.287 85.0081C109.405 84.9477 109.524 84.8939 109.645 84.8466L109.278 83.9163ZM115.471 81.5C114.685 81.5 113.943 81.6948 113.292 82.0392L113.759 82.9232C114.27 82.6531 114.852 82.5 115.471 82.5V81.5ZM109.645 84.8466C111.008 84.3092 112.475 83.6024 113.759 82.9232L113.292 82.0392C112.028 82.7075 110.596 83.3966 109.278 83.9163L109.645 84.8466ZM111.803 111.625C111.803 108.73 108.743 106.858 106.166 108.176L106.621 109.067C108.533 108.089 110.803 109.478 110.803 111.625H111.803ZM155.581 108.052C153.008 106.793 150.006 108.667 150.006 111.532H151.006C151.006 109.407 153.233 108.017 155.142 108.95L155.581 108.052ZM148.151 82.9791C149.386 83.6833 150.792 84.4127 152.114 84.9717L152.504 84.0507C151.23 83.5118 149.86 82.8023 148.647 82.1104L148.151 82.9791Z" fill="#2A9DDD"/>
<rect x="117.718" y="107.152" width="8.38413" height="9.58186" rx="1.79931" fill="#E5F3F8" stroke="#2A9DDD"/>
<rect x="173.729" y="119.307" width="60.0843" height="20.1446" rx="6.55882" fill="white" stroke="#2A9DDD"/>
<rect x="173.729" y="106.777" width="60.0843" height="8.39759" rx="4.19879" fill="white" stroke="#2A9DDD"/>
<rect x="173.729" y="94.2471" width="60.0843" height="8.39759" rx="4.19879" fill="white" stroke="#2A9DDD"/>
<path d="M99.6144 139.952H242.145V196.314C242.145 204.977 235.122 212 226.458 212H115.301C106.637 212 99.6144 204.977 99.6144 196.314V139.952Z" fill="white" stroke="#2A9DDD"/>
<rect x="91" y="124.289" width="159.759" height="18.7952" rx="4.70588" fill="#E5F3F8" stroke="#2A9DDD"/>
<rect x="127.524" y="156.114" width="11.549" height="17.8235" rx="5.77451" fill="#E5F3F8" stroke="#2A9DDD"/>
<rect x="152.578" y="156.114" width="11.549" height="17.8235" rx="5.77451" fill="#E5F3F8" stroke="#2A9DDD"/>
<rect x="177.632" y="156.114" width="11.549" height="17.8235" rx="5.77451" fill="#E5F3F8" stroke="#2A9DDD"/>
<rect x="202.686" y="156.114" width="11.549" height="17.8235" rx="5.77451" fill="#E5F3F8" stroke="#2A9DDD"/>
<rect x="140.054" y="181.175" width="11.549" height="17.8235" rx="5.77451" fill="#E5F3F8" stroke="#2A9DDD"/>
<rect x="165.152" y="181.175" width="11.549" height="17.8235" rx="5.77451" fill="#E5F3F8" stroke="#2A9DDD"/>
<rect x="190.25" y="181.175" width="11.549" height="17.8235" rx="5.77451" fill="#E5F3F8" stroke="#2A9DDD"/>
<rect x="80" y="220" width="181" height="6" rx="3" fill="#E5F3F8"/>
<defs>
<filter id="filter0_d_1_331" x="0" y="0" width="356" height="356" filterUnits="userSpaceOnUse" color-interpolation-filters="sRGB">
<feFlood flood-opacity="0" result="BackgroundImageFix"/>
<feColorMatrix in="SourceAlpha" type="matrix" values="0 0 0 0 0 0 0 0 0 0 0 0 0 0 0 0 0 0 127 0" result="hardAlpha"/>
<feMorphology radius="10" operator="dilate" in="SourceAlpha" result="effect1_dropShadow_1_331"/>
<feOffset dx="8" dy="24"/>
<feGaussianBlur stdDeviation="24"/>
<feColorMatrix type="matrix" values="0 0 0 0 0.0325521 0 0 0 0 0.0785615 0 0 0 0 0.104167 0 0 0 0.05 0"/>
<feBlend mode="normal" in2="BackgroundImageFix" result="effect1_dropShadow_1_331"/>
<feBlend mode="normal" in="SourceGraphic" in2="effect1_dropShadow_1_331" result="shape"/>
</filter>
</defs>
</svg>
