<svg width="80" height="80" viewBox="0 0 80 80" fill="none" xmlns="http://www.w3.org/2000/svg">
<path d="M36.7596 18.6967C37.454 18.1508 38.4404 18.1508 39.1348 18.6967L55.1223 31.2652C56.5269 32.3694 55.7329 34.5966 53.9347 34.5966H21.9597C20.1614 34.5966 19.3675 32.3694 20.7721 31.2652L36.7596 18.6967Z" fill="#E5F3F8" stroke="#2A9DDD"/>
<path fill-rule="evenodd" clip-rule="evenodd" d="M38.0989 14.9817C37.8335 14.9938 37.622 15.2128 37.622 15.4812V18.2868C37.622 18.5629 37.8459 18.7868 38.122 18.7868C38.3982 18.7868 38.622 18.5629 38.622 18.2868V16.3058C39.1192 16.1912 39.5941 15.9894 40.0231 15.7075C40.7269 15.2451 41.2754 14.5878 41.5993 13.8189C41.9232 13.0499 42.0079 12.2037 41.8428 11.3874C41.6777 10.571 41.2701 9.82116 40.6716 9.23261C40.0731 8.64406 39.3106 8.24325 38.4805 8.08086C37.6504 7.91848 36.79 8.00182 36.008 8.32035C35.226 8.63887 34.5577 9.17827 34.0875 9.87033C33.7568 10.357 33.5346 10.9037 33.4318 11.4748C33.3596 11.8756 33.6965 12.2084 34.1038 12.2084C34.5111 12.2084 34.8316 11.8723 34.9409 11.4799C35.0201 11.1956 35.1455 10.924 35.3139 10.6762C35.622 10.2227 36.06 9.8692 36.5725 9.66046C37.0849 9.45173 37.6488 9.39712 38.1927 9.50353C38.7367 9.60994 39.2364 9.8726 39.6286 10.2583C40.0208 10.644 40.2879 11.1354 40.3961 11.6704C40.5043 12.2053 40.4488 12.7598 40.2365 13.2638C40.0243 13.7677 39.6648 14.1984 39.2037 14.5015C38.9449 14.6715 38.6607 14.797 38.3631 14.8744C38.2705 14.8985 38.1812 14.9349 38.0989 14.9817Z" fill="#2A9DDD"/>
<path fill-rule="evenodd" clip-rule="evenodd" d="M26.1169 24.3049C27.6971 24.3049 29.0061 25.4556 29.7173 26.8667C30.1741 27.7729 30.7686 28.61 31.4872 29.3441C33.3114 31.2075 35.7855 32.2544 38.3652 32.2544C40.945 32.2544 43.419 31.2075 45.2432 29.3441C45.9617 28.6101 46.5562 27.773 47.013 26.867C47.7243 25.4558 49.0334 24.3049 50.6138 24.3049C51.1746 24.3049 51.7029 24.4442 52.1659 24.69C53.2297 25.2548 54.4241 25.8832 55.5347 26.3494C55.5939 26.3742 55.6528 26.4007 55.7113 26.4288L66.5534 31.6424C68.4199 32.54 69.2303 34.7924 68.3636 36.6734L64.8741 44.2461C64.0073 46.1271 61.7916 46.9243 59.9251 46.0268L57.96 45.0818C56.0928 44.1839 53.9287 45.5446 53.9287 47.6165V68.2499C53.9287 70.3209 52.2497 71.9999 50.1787 71.9999H26.5524C24.4814 71.9999 22.8024 70.3209 22.8024 68.2499V47.6935C22.8024 45.5999 20.5967 44.2402 18.7263 45.1809L16.9714 46.0634C15.1212 46.994 12.8924 46.2359 11.9932 44.3702L8.37524 36.863C7.47609 34.9973 8.24711 32.7305 10.0974 31.8L20.8504 26.3921C20.9546 26.3397 21.0599 26.2927 21.1662 26.2509C22.3087 25.8016 23.5503 25.1896 24.6511 24.6459C25.093 24.4276 25.5907 24.3049 26.1169 24.3049Z" fill="white"/>
<path d="M29.7173 26.8667L29.2708 27.0917V27.0917L29.7173 26.8667ZM31.4872 29.3441L31.8445 28.9943L31.4872 29.3441ZM45.2432 29.3441L44.8859 28.9943V28.9943L45.2432 29.3441ZM47.013 26.867L46.5665 26.6419V26.6419L47.013 26.867ZM55.7113 26.4288L55.4946 26.8794L55.7113 26.4288ZM66.5534 31.6424L66.7701 31.1918L66.5534 31.6424ZM68.3636 36.6734L67.9095 36.4641L68.3636 36.6734ZM64.8741 44.2461L65.3282 44.4553V44.4553L64.8741 44.2461ZM59.9251 46.0268L60.1418 45.5761L59.9251 46.0268ZM16.9714 46.0634L16.7468 45.6167L16.7468 45.6167L16.9714 46.0634ZM11.9932 44.3702L12.4436 44.1531L11.9932 44.3702ZM8.37524 36.863L7.92482 37.0801H7.92482L8.37524 36.863ZM10.0974 31.8L10.322 32.2467H10.322L10.0974 31.8ZM20.8504 26.3921L20.6257 25.9454L20.8504 26.3921ZM57.96 45.0818L57.7433 45.5324L57.96 45.0818ZM52.1659 24.69L52.4004 24.2484L52.1659 24.69ZM55.5347 26.3494L55.3412 26.8104L55.5347 26.3494ZM30.1638 26.6417C29.4038 25.1338 27.9548 23.8049 26.1169 23.8049V24.8049C27.4395 24.8049 28.6084 25.7774 29.2708 27.0917L30.1638 26.6417ZM31.8445 28.9943C31.1624 28.2975 30.5978 27.5026 30.1638 26.6417L29.2708 27.0917C29.7504 28.0431 30.3748 28.9225 31.1299 29.6938L31.8445 28.9943ZM38.3652 31.7544C35.9216 31.7544 33.5758 30.7628 31.8445 28.9943L31.1299 29.6938C33.047 31.6522 35.6494 32.7544 38.3652 32.7544V31.7544ZM44.8859 28.9943C43.1547 30.7628 40.8089 31.7544 38.3652 31.7544V32.7544C41.0811 32.7544 43.6834 31.6522 45.6005 29.6938L44.8859 28.9943ZM46.5665 26.6419C46.1325 27.5028 45.5679 28.2976 44.8859 28.9943L45.6005 29.6938C46.3555 28.9225 46.9799 28.0433 47.4594 27.092L46.5665 26.6419ZM50.6138 23.8049C48.7758 23.8049 47.3266 25.1339 46.5665 26.6419L47.4594 27.092C48.122 25.7776 49.2911 24.8049 50.6138 24.8049V23.8049ZM52.4004 24.2484C51.8669 23.9652 51.2583 23.8049 50.6138 23.8049V24.8049C51.0909 24.8049 51.5389 24.9232 51.9315 25.1316L52.4004 24.2484ZM55.3412 26.8104C55.3926 26.8319 55.4437 26.8549 55.4946 26.8794L55.928 25.9782C55.8618 25.9464 55.7952 25.9164 55.7282 25.8883L55.3412 26.8104ZM55.4946 26.8794L66.3367 32.0931L66.7701 31.1918L55.928 25.9782L55.4946 26.8794ZM66.3367 32.0931C67.9572 32.8723 68.662 34.831 67.9095 36.4641L68.8177 36.8826C69.7987 34.7538 68.8826 32.2077 66.7701 31.1918L66.3367 32.0931ZM67.9095 36.4641L64.4199 44.0368L65.3282 44.4553L68.8177 36.8826L67.9095 36.4641ZM64.4199 44.0368C63.6701 45.6641 61.7565 46.3526 60.1418 45.5761L59.7084 46.4774C61.8266 47.496 64.3445 46.59 65.3282 44.4553L64.4199 44.0368ZM60.1418 45.5761L58.1767 44.6312L57.7433 45.5324L59.7084 46.4774L60.1418 45.5761ZM54.4287 68.2499V47.6165H53.4287V68.2499H54.4287ZM50.1787 72.4999C52.5259 72.4999 54.4287 70.5971 54.4287 68.2499H53.4287C53.4287 70.0448 51.9736 71.4999 50.1787 71.4999V72.4999ZM26.5524 72.4999H50.1787V71.4999H26.5524V72.4999ZM22.3024 68.2499C22.3024 70.5971 24.2052 72.4999 26.5524 72.4999V71.4999C24.7575 71.4999 23.3024 70.0448 23.3024 68.2499H22.3024ZM22.3024 47.6935V68.2499H23.3024V47.6935H22.3024ZM17.1961 46.5101L18.9509 45.6276L18.5016 44.7342L16.7468 45.6167L17.1961 46.5101ZM11.5428 44.5872C12.5633 46.7047 15.0962 47.5662 17.1961 46.5101L16.7468 45.6167C15.1462 46.4217 13.2215 45.767 12.4436 44.1531L11.5428 44.5872ZM7.92482 37.0801L11.5428 44.5872L12.4436 44.1531L8.82566 36.6459L7.92482 37.0801ZM9.87271 31.3533C7.7787 32.4064 6.90721 34.9686 7.92482 37.0801L8.82566 36.6459C8.04497 35.026 8.71552 33.0546 10.322 32.2467L9.87271 31.3533ZM20.6257 25.9454L9.87271 31.3533L10.322 32.2467L21.075 26.8388L20.6257 25.9454ZM20.9832 25.7856C20.8628 25.8329 20.7435 25.8862 20.6257 25.9454L21.075 26.8388C21.1656 26.7932 21.2571 26.7524 21.3492 26.7162L20.9832 25.7856ZM26.1169 23.8049C25.5122 23.8049 24.9389 23.946 24.4297 24.1976L24.8725 25.0942C25.2471 24.9091 25.6692 24.8049 26.1169 24.8049V23.8049ZM21.3492 26.7162C22.5148 26.2578 23.7756 25.6359 24.8725 25.0942L24.4297 24.1976C23.325 24.7432 22.1027 25.3453 20.9832 25.7856L21.3492 26.7162ZM23.3024 47.6935C23.3024 45.2277 20.7046 43.6263 18.5016 44.7342L18.9509 45.6276C20.4888 44.8541 22.3024 45.9721 22.3024 47.6935H23.3024ZM58.1767 44.6312C55.9776 43.5737 53.4287 45.1763 53.4287 47.6165H54.4287C54.4287 45.913 56.2081 44.7942 57.7433 45.5324L58.1767 44.6312ZM51.9315 25.1316C52.9925 25.6949 54.2064 26.3341 55.3412 26.8104L55.7282 25.8883C54.6418 25.4324 53.467 24.8146 52.4004 24.2484L51.9315 25.1316Z" fill="#2A9DDD"/>
<rect x="27.8958" y="43.9441" width="6.6568" height="7.48157" rx="1.5" fill="#E5F3F8" stroke="#2A9DDD"/>
<rect x="48.9998" y="51.9105" width="8.27765" height="20.0895" fill="white"/>
<rect x="38.0002" y="67.9852" width="34" height="4.01478" rx="2.00739" fill="white" stroke="#2A9DDD"/>
<rect width="8.15324" height="3.09151" rx="1.54575" transform="matrix(0.174112 0.984726 -0.985198 0.171419 65.3411 49.9925)" fill="white" stroke="#2A9DDD"/>
<rect x="51.51" y="49.5448" width="15.6752" height="3.72995" rx="1.86498" fill="white" stroke="#2A9DDD"/>
<path d="M41.2071 61.6558C42.5625 58.5145 45.656 56.48 49.0773 56.48L66.5255 56.48C68.2568 56.48 69.7165 57.7708 69.9283 59.4891L70.2656 62.2252C70.4756 63.9289 69.1465 65.4319 67.4299 65.4319H42.1846C40.9521 65.4319 40.1223 64.1701 40.6105 63.0384L41.2071 61.6558Z" fill="#E5F3F8" stroke="#2A9DDD"/>
<ellipse cx="53.0093" cy="60.8521" rx="1.39921" ry="1.38801" fill="#2A9DDD"/>
<ellipse cx="57.9844" cy="60.8521" rx="1.39921" ry="1.38801" fill="#2A9DDD"/>
<ellipse cx="62.959" cy="60.8521" rx="1.39921" ry="1.38801" fill="#2A9DDD"/>
</svg>
