<svg width="419" height="453" viewBox="0 0 419 453" fill="none" xmlns="http://www.w3.org/2000/svg">
<rect width="419" height="453" fill="white"/>
<path id="Rectangle 1" d="M51 92C51 80.9543 59.9543 72 71 72H359C370.046 72 379 80.9543 379 92V433C379 444.046 370.046 453 359 453H71C59.9543 453 51 444.046 51 433V92Z" fill="#A4E999"/>
<line id="Line 1" x1="51" y1="140.5" x2="379" y2="140.5" stroke="black" stroke-width="3"/>
<circle id="Ellipse 1" cx="214.5" cy="293.5" r="109.5" fill="#D9D9D9"/>
<circle id="Ellipse 2" cx="215" cy="294" r="90" fill="white"/>
<path id="Star 1" d="M31.5317 36.1386C33.5848 34.1016 37.0476 35.8631 36.6102 38.722L34.7915 50.6078C34.5957 51.8875 35.2429 53.1485 36.3968 53.7355L47.1759 59.2188C49.7762 60.5415 49.1496 64.4217 46.2651 64.8588L34.469 66.6463C33.171 66.843 32.1516 67.8609 31.953 69.1587L30.155 80.9093C29.7161 83.7779 25.8656 84.4139 24.5275 81.8389L18.924 71.056C18.3322 69.9172 17.0815 69.281 15.8126 69.4732L3.79778 71.2938C0.928589 71.7286 -0.824684 68.242 1.23534 66.1981L9.67397 57.8254C10.606 56.9007 10.8284 55.4774 10.223 54.3124L4.72155 43.7258C3.37628 41.1371 6.14346 38.3458 8.74378 39.6686L19.5229 45.1518C20.6768 45.7388 22.077 45.5194 22.996 44.6075L31.5317 36.1386Z" fill="#D9D9D9"/>
<path id="Star 2" d="M401.532 30.1386C403.585 28.1016 407.048 29.8631 406.61 32.722L404.792 44.6078C404.596 45.8875 405.243 47.1485 406.397 47.7355L417.176 53.2188C419.776 54.5415 419.15 58.4217 416.265 58.8588L404.469 60.6463C403.171 60.843 402.152 61.8609 401.953 63.1587L400.155 74.9093C399.716 77.7779 395.866 78.4139 394.527 75.8389L388.924 65.056C388.332 63.9172 387.082 63.281 385.813 63.4732L373.798 65.2938C370.929 65.7286 369.175 62.242 371.235 60.1981L379.674 51.8254C380.606 50.9007 380.828 49.4774 380.223 48.3124L374.722 37.7258C373.376 35.1371 376.143 32.3458 378.744 33.6686L389.523 39.1518C390.677 39.7388 392.077 39.5194 392.996 38.6075L401.532 30.1386Z" fill="#D9D9D9"/>
<path id="Star 3" d="M208.532 1.13862C210.585 -0.898422 214.048 0.863098 213.61 3.72201L211.792 15.6078C211.596 16.8875 212.243 18.1485 213.397 18.7355L224.176 24.2188C226.776 25.5415 226.15 29.4217 223.265 29.8588L211.469 31.6463C210.171 31.843 209.152 32.8609 208.953 34.1587L207.155 45.9093C206.716 48.7779 202.866 49.4139 201.527 46.8389L195.924 36.056C195.332 34.9172 194.082 34.281 192.813 34.4732L180.798 36.2938C177.929 36.7286 176.175 33.242 178.235 31.1981L186.674 22.8254C187.606 21.9007 187.828 20.4774 187.223 19.3124L181.722 8.72583C180.376 6.13708 183.143 3.34578 185.744 4.66855L196.523 10.1518C197.677 10.7388 199.077 10.5194 199.996 9.60753L208.532 1.13862Z" fill="#D9D9D9"/>
<circle id="Ellipse 3" cx="86" cy="108" r="12" fill="#504C4C"/>
</svg>
