<svg width="85" height="65" viewBox="0 0 85 65" fill="none" xmlns="http://www.w3.org/2000/svg">
<path d="M1 18.6132C1 17.7222 1.72225 17 2.61318 17H53.3868C54.2778 17 55 17.7222 55 18.6132V56.302C55 60.5535 51.5535 64 47.302 64H8.69798C4.44651 64 1 60.5535 1 56.302V18.6132Z" fill="white" stroke="#2A9DDD"/>
<path d="M1 8.69798C1 4.4465 4.4465 1 8.69798 1H47.302C51.5535 1 55 4.4465 55 8.69798V13.3868C55 14.2778 54.2778 15 53.3868 15H2.61318C1.72224 15 1 14.2778 1 13.3868V8.69798Z" fill="white" stroke="#2A9DDD"/>
<circle cx="48.7329" cy="6.64367" r="1.5332" fill="#2A9DDD"/>
<rect x="38" y="5.11047" width="7.15494" height="3.0664" rx="1.44337" fill="#2A9DDD"/>
<path d="M23.6252 39.2742L23.5632 39.7704L23.5632 39.7704L23.6252 39.2742ZM27.1312 40.1264L26.9608 40.5965L26.9608 40.5965L27.1312 40.1264ZM27.9137 40.4196L27.7353 40.8867L27.736 40.887L27.9137 40.4196ZM27.9139 40.4197L28.0923 39.9526L28.0916 39.9524L27.9139 40.4197ZM29.4012 40.919L29.2799 41.4041L29.2799 41.4041L29.4012 40.919ZM28.6736 43.8295L28.7949 43.3444L28.7949 43.3444L28.6736 43.8295ZM26.691 43.1656L26.5125 43.6327L26.5125 43.6327L26.691 43.1656ZM26.1088 42.9468L26.2792 42.4768L26.2792 42.4768L26.1088 42.9468ZM23.2531 42.251L23.3151 41.7549L23.3151 41.7549L23.2531 42.251ZM34.1624 43.8249L34.2499 44.3171L34.1624 43.8249ZM35.216 45.1048L34.7733 44.8722L35.216 45.1048ZM15.6607 40.667L15.8753 41.1186L15.6607 40.667ZM36.2491 40.2818L36.1216 39.7983L36.2491 40.2818ZM25.4749 29.5C31.2721 29.5 35.9717 34.1996 35.9717 39.9969H36.9717C36.9717 33.6473 31.8244 28.5 25.4749 28.5V29.5ZM14.978 39.9969C14.978 34.1996 19.6776 29.5 25.4749 29.5V28.5C19.1253 28.5 13.978 33.6473 13.978 39.9969H14.978ZM15.8753 41.1186C17.8659 40.1727 20.5897 39.3987 23.5632 39.7704L23.6873 38.7781C20.4715 38.3761 17.5531 39.2142 15.4461 40.2154L15.8753 41.1186ZM23.5632 39.7704C25.0142 39.9517 26.0643 40.2715 26.9608 40.5965L27.3016 39.6564C26.3567 39.3139 25.2321 38.9712 23.6873 38.7781L23.5632 39.7704ZM26.9608 40.5965C27.2491 40.701 27.5006 40.7971 27.7353 40.8867L28.0921 39.9525C27.8579 39.8631 27.5989 39.7641 27.3016 39.6564L26.9608 40.5965ZM27.736 40.887L27.7362 40.8871L28.0916 39.9524L28.0914 39.9523L27.736 40.887ZM27.7355 40.8868C28.27 41.091 28.7251 41.2654 29.2799 41.4041L29.5225 40.434C29.0344 40.3119 28.633 40.1592 28.0923 39.9526L27.7355 40.8868ZM29.2799 41.4041C30.6142 41.7377 32.4234 41.8082 36.3766 40.7652L36.1216 39.7983C32.2466 40.8206 30.6254 40.7097 29.5225 40.434L29.2799 41.4041ZM34.0749 43.3326C31.6835 43.7577 30.1318 43.6786 28.7949 43.3444L28.5523 44.3145C30.0567 44.6906 31.7549 44.7607 34.2499 44.3171L34.0749 43.3326ZM28.7949 43.3444C28.1201 43.1757 27.4738 42.9294 26.8694 42.6985L26.5125 43.6327C27.1096 43.8608 27.8104 44.129 28.5523 44.3145L28.7949 43.3444ZM26.8694 42.6985C26.6674 42.6214 26.4687 42.5455 26.2792 42.4768L25.9384 43.4169C26.1184 43.4822 26.3088 43.5549 26.5125 43.6327L26.8694 42.6985ZM26.2792 42.4768C25.4793 42.1868 24.5784 41.9128 23.3151 41.7549L23.1911 42.7472C24.3605 42.8934 25.1868 43.1444 25.9384 43.4169L26.2792 42.4768ZM23.3151 41.7549C20.2431 41.3709 17.4455 42.4569 15.7818 43.4238L16.2843 44.2884C17.8375 43.3857 20.412 42.3998 23.1911 42.7472L23.3151 41.7549ZM25.4749 50.4937C21.4081 50.4937 17.8806 48.1811 16.1373 44.797L15.2483 45.255C17.1564 48.9589 21.0192 51.4937 25.4749 51.4937V50.4937ZM34.7733 44.8722C33.0167 48.2154 29.5114 50.4937 25.4749 50.4937V51.4937C29.8974 51.4937 33.7359 48.9964 35.6586 45.3374L34.7733 44.8722ZM15.7818 43.4238C15.141 43.7963 14.9103 44.5988 15.2483 45.255L16.1373 44.797C16.0417 44.6115 16.1066 44.3917 16.2843 44.2884L15.7818 43.4238ZM34.2499 44.3171C34.4574 44.2802 34.6342 44.3602 34.7334 44.4772C34.8252 44.5853 34.8527 44.7211 34.7733 44.8722L35.6586 45.3374C35.9432 44.7956 35.8293 44.223 35.4959 43.8301C35.1699 43.446 34.6379 43.2325 34.0749 43.3326L34.2499 44.3171ZM13.978 39.9969C13.978 41.0338 15.08 41.4965 15.8753 41.1186L15.4461 40.2154C15.3265 40.2722 15.1999 40.2611 15.1086 40.2111C15.0239 40.1647 14.978 40.0928 14.978 39.9969H13.978ZM35.9717 39.9969C35.9717 39.8958 36.0396 39.8199 36.1216 39.7983L36.3766 40.7652C36.7178 40.6752 36.9717 40.366 36.9717 39.9969H35.9717Z" fill="#2A9DDD"/>
<path d="M40.4804 44.75H81.5196V59.31C81.5196 60.7957 80.3152 62 78.8296 62H43.1704C41.6847 62 40.4804 60.7957 40.4804 59.31V44.75Z" fill="white" stroke="#2A9DDD"/>
<rect x="38" y="41" width="46" height="4.5" rx="2.25" fill="#E5F3F8" stroke="#2A9DDD"/>
<rect x="-0.5" y="0.5" width="2.65079" height="5.72" rx="1.3254" transform="matrix(-1 0 0 1 51.6032 47.72)" fill="#E5F3F8" stroke="#2A9DDD"/>
<rect x="-0.5" y="0.5" width="2.65079" height="5.72" rx="1.3254" transform="matrix(-1 0 0 1 62.5555 47.72)" fill="#E5F3F8" stroke="#2A9DDD"/>
<rect x="-0.5" y="0.5" width="2.65079" height="5.72" rx="1.3254" transform="matrix(-1 0 0 1 73.5079 47.72)" fill="#E5F3F8" stroke="#2A9DDD"/>
<rect x="-0.5" y="0.5" width="2.65079" height="5.72" rx="1.3254" transform="matrix(-1 0 0 1 67.6667 54.44)" fill="#E5F3F8" stroke="#2A9DDD"/>
<rect x="-0.5" y="0.5" width="2.65079" height="5.72" rx="1.3254" transform="matrix(-1 0 0 1 56.7143 54.44)" fill="#E5F3F8" stroke="#2A9DDD"/>
</svg>
