<svg width="72" height="70" viewBox="0 0 72 70" fill="none" xmlns="http://www.w3.org/2000/svg">
<rect width="72" height="70" fill="white"/>
<path d="M5 21.6132C5 20.7222 5.72225 20 6.61318 20H57.3868C58.2778 20 59 20.7222 59 21.6132V59.302C59 63.5535 55.5535 67 51.302 67H12.698C8.44651 67 5 63.5535 5 59.302V21.6132Z" fill="white" stroke="#2A9DDD"/>
<path d="M5 13.698C5 9.4465 8.4465 6 12.698 6H51.302C55.5535 6 59 9.4465 59 13.698V18.3868C59 19.2778 58.2778 20 57.3868 20H6.61318C5.72224 20 5 19.2778 5 18.3868V13.698Z" fill="white" stroke="#2A9DDD"/>
<circle cx="52.7329" cy="9.64367" r="1.5332" fill="#2A9DDD"/>
<rect x="42" y="8.11047" width="7.15494" height="3.0664" rx="1.44337" fill="#2A9DDD"/>
<path d="M27.6252 42.2742L27.5632 42.7704L27.5632 42.7704L27.6252 42.2742ZM31.1312 43.1264L30.9608 43.5965L30.9608 43.5965L31.1312 43.1264ZM31.9137 43.4196L31.7353 43.8867L31.736 43.887L31.9137 43.4196ZM31.9139 43.4197L32.0923 42.9526L32.0916 42.9524L31.9139 43.4197ZM33.4012 43.919L33.2799 44.4041L33.2799 44.4041L33.4012 43.919ZM32.6736 46.8295L32.7949 46.3444L32.7949 46.3444L32.6736 46.8295ZM30.691 46.1656L30.5125 46.6327L30.5125 46.6327L30.691 46.1656ZM30.1088 45.9468L30.2792 45.4768L30.2792 45.4768L30.1088 45.9468ZM27.2531 45.251L27.3151 44.7549L27.3151 44.7549L27.2531 45.251ZM38.1624 46.8249L38.2499 47.3171L38.1624 46.8249ZM39.216 48.1048L38.7733 47.8722L39.216 48.1048ZM19.6607 43.667L19.8753 44.1186L19.6607 43.667ZM40.2491 43.2818L40.1216 42.7983L40.2491 43.2818ZM29.4749 32.5C35.2721 32.5 39.9717 37.1996 39.9717 42.9969H40.9717C40.9717 36.6473 35.8244 31.5 29.4749 31.5V32.5ZM18.978 42.9969C18.978 37.1996 23.6776 32.5 29.4749 32.5V31.5C23.1253 31.5 17.978 36.6473 17.978 42.9969H18.978ZM19.8753 44.1186C21.8659 43.1727 24.5897 42.3987 27.5632 42.7704L27.6873 41.7781C24.4715 41.3761 21.5531 42.2142 19.4461 43.2154L19.8753 44.1186ZM27.5632 42.7704C29.0142 42.9517 30.0643 43.2715 30.9608 43.5965L31.3016 42.6564C30.3567 42.3139 29.2321 41.9712 27.6873 41.7781L27.5632 42.7704ZM30.9608 43.5965C31.2491 43.701 31.5006 43.7971 31.7353 43.8867L32.0921 42.9525C31.8579 42.8631 31.5989 42.7641 31.3016 42.6564L30.9608 43.5965ZM31.736 43.887L31.7362 43.8871L32.0916 42.9524L32.0914 42.9523L31.736 43.887ZM31.7355 43.8868C32.27 44.091 32.7251 44.2654 33.2799 44.4041L33.5225 43.434C33.0344 43.3119 32.633 43.1592 32.0923 42.9526L31.7355 43.8868ZM33.2799 44.4041C34.6142 44.7377 36.4234 44.8082 40.3766 43.7652L40.1216 42.7983C36.2466 43.8206 34.6254 43.7097 33.5225 43.434L33.2799 44.4041ZM38.0749 46.3326C35.6835 46.7577 34.1318 46.6786 32.7949 46.3444L32.5523 47.3145C34.0567 47.6906 35.7549 47.7607 38.2499 47.3171L38.0749 46.3326ZM32.7949 46.3444C32.1201 46.1757 31.4738 45.9294 30.8694 45.6985L30.5125 46.6327C31.1096 46.8608 31.8104 47.129 32.5523 47.3145L32.7949 46.3444ZM30.8694 45.6985C30.6674 45.6214 30.4687 45.5455 30.2792 45.4768L29.9384 46.4169C30.1184 46.4822 30.3088 46.5549 30.5125 46.6327L30.8694 45.6985ZM30.2792 45.4768C29.4793 45.1868 28.5784 44.9128 27.3151 44.7549L27.1911 45.7472C28.3605 45.8934 29.1868 46.1444 29.9384 46.4169L30.2792 45.4768ZM27.3151 44.7549C24.2431 44.3709 21.4455 45.4569 19.7818 46.4238L20.2843 47.2884C21.8375 46.3857 24.412 45.3998 27.1911 45.7472L27.3151 44.7549ZM29.4749 53.4937C25.4081 53.4937 21.8806 51.1811 20.1373 47.797L19.2483 48.255C21.1564 51.9589 25.0192 54.4937 29.4749 54.4937V53.4937ZM38.7733 47.8722C37.0167 51.2154 33.5114 53.4937 29.4749 53.4937V54.4937C33.8974 54.4937 37.7359 51.9964 39.6586 48.3374L38.7733 47.8722ZM19.7818 46.4238C19.141 46.7963 18.9103 47.5988 19.2483 48.255L20.1373 47.797C20.0417 47.6115 20.1066 47.3917 20.2843 47.2884L19.7818 46.4238ZM38.2499 47.3171C38.4574 47.2802 38.6342 47.3602 38.7334 47.4772C38.8252 47.5853 38.8527 47.7211 38.7733 47.8722L39.6586 48.3374C39.9432 47.7956 39.8293 47.223 39.4959 46.8301C39.1699 46.446 38.6379 46.2325 38.0749 46.3326L38.2499 47.3171ZM17.978 42.9969C17.978 44.0338 19.08 44.4965 19.8753 44.1186L19.4461 43.2154C19.3265 43.2722 19.1999 43.2611 19.1086 43.2111C19.0239 43.1647 18.978 43.0928 18.978 42.9969H17.978ZM39.9717 42.9969C39.9717 42.8958 40.0396 42.8199 40.1216 42.7983L40.3766 43.7652C40.7178 43.6752 40.9717 43.366 40.9717 42.9969H39.9717Z" fill="#2A9DDD"/>
<path d="M65 40H49C46.7909 40 45 41.7909 45 44V63C45 65.2091 46.7909 67 49 67H65C67.2091 67 69 65.2091 69 63V44C69 41.7909 67.2091 40 65 40Z" fill="#E5F3F8" stroke="#2A9DDD"/>
</svg>
